<svg xmlns="http://www.w3.org/2000/svg" xmlns:xlink="http://www.w3.org/1999/xlink">
    <defs>
        <symbol viewBox="0 0 24 24" id="icon-plus">
            <path d="M18 12.998h-5v5a1 1 0 0 1-2 0v-5H6a1 1 0 0 1 0-2h5v-5a1 1 0 0 1 2 0v5h5a1 1 0 0 1 0 2z"></path>
        </symbol>

        <symbol viewBox="0 0 24 24" id="icon-minus">
            <path d="M19 12.998H5v-2h14z" />
        </symbol>

        <symbol viewBox="0 0 24 24" id="star-empty">
            <!-- <path d="M239.2 97.29a16 16 0 0 0-13.81-11L166 81.17l-23.28-55.36a15.95 15.95 0 0 0-29.44 0L90.07 81.17l-59.46 5.15a16 16 0 0 0-9.11 28.06l45.11 39.42l-13.52 58.54a16 16 0 0 0 23.84 17.34l51-31l51.11 31a16 16 0 0 0 23.84-17.34l-13.51-58.6l45.1-39.36a16 16 0 0 0 4.73-17.09Zm-15.22 5l-45.1 39.36a16 16 0 0 0-5.08 15.71L187.35 216l-51.07-31a15.9 15.9 0 0 0-16.54 0l-51 31l13.46-58.6a16 16 0 0 0-5.08-15.71L32 102.35a.37.37 0 0 1 0-.09l59.44-5.14a16 16 0 0 0 13.35-9.75L128 32.08l23.2 55.29a16 16 0 0 0 13.35 9.75l59.45 5.14v.07Z"></path> -->
            <path d="m8.85 17.825l3.15-1.9l3.15 1.925l-.825-3.6l2.775-2.4l-3.65-.325l-1.45-3.4l-1.45 3.375l-3.65.325l2.775 2.425l-.825 3.575ZM5.825 22l1.625-7.025L2 10.25l7.2-.625L12 3l2.8 6.625l7.2.625l-5.45 4.725L18.175 22L12 18.275L5.825 22ZM12 13.25Z"/>
        </symbol>

        <symbol viewBox="0 0 24 24" id="star-filled">
            <!-- <path d="m234.5 114.38l-45.1 39.36l13.51 58.6a16 16 0 0 1-23.84 17.34l-51.11-31l-51 31a16 16 0 0 1-23.84-17.34l13.49-58.54l-45.11-39.42a16 16 0 0 1 9.11-28.06l59.46-5.15l23.21-55.36a15.95 15.95 0 0 1 29.44 0L166 81.17l59.44 5.15a16 16 0 0 1 9.11 28.06Z"/> -->
            <path d="m5.825 22l1.625-7.025L2 10.25l7.2-.625L12 3l2.8 6.625l7.2.625l-5.45 4.725L18.175 22L12 18.275L5.825 22Z"/>
        </symbol>
    </defs>
</svg>